<svg xmlns="http://www.w3.org/2000/svg" xmlns:svg="http://www.w3.org/2000/svg" id="svg2" width="12" height="60" version="1.1"><metadata id="metadata7"/><g id="layer1" transform="translate(-665.17859,-662.82648)"><g id="g11206"><path style="opacity:.9;fill:#fcaf3e;fill-opacity:1;fill-rule:evenodd;stroke:#ce5c00;stroke-width:.99999994;stroke-miterlimit:4;stroke-opacity:1;stroke-dasharray:none;display:inline;enable-background:new" id="path10302" d="m 671.17859,700.82648 -1.2812,2.5937 -2.7188,0.4688 1.9375,2.0937 -0.4062,2.8438 2.4687,-1.3125 2.4688,1.3125 -0.4063,-2.8438 1.9375,-2.0937 -2.7187,-0.4688 -1.2813,-2.5937 z"/><path id="path5099" d="m 671.17859,712.82648 -1.2812,2.5937 -2.7188,0.4688 1.9375,2.0937 -0.4062,2.8438 2.4687,-1.3125 2.4688,1.3125 -0.4063,-2.8438 1.9375,-2.0937 -2.7187,-0.4688 -1.2813,-2.5937 z" style="opacity:.9;fill:#ef2929;fill-opacity:1;fill-rule:evenodd;stroke:#a40000;stroke-width:.99999994;stroke-miterlimit:4;stroke-opacity:1;stroke-dasharray:none;display:inline;enable-background:new"/><path style="opacity:.9;fill:#ebebeb;fill-opacity:1;fill-rule:evenodd;stroke:#bababa;stroke-width:.99999994;stroke-miterlimit:4;stroke-opacity:.69411765;stroke-dasharray:none;display:inline;enable-background:new" id="path5101" d="m 671.17859,688.82648 -1.2812,2.5937 -2.7188,0.4688 1.9375,2.0937 -0.4062,2.8438 2.4687,-1.3125 2.4688,1.3125 -0.4063,-2.8438 1.9375,-2.0937 -2.7187,-0.4688 -1.2813,-2.5937 z"/><path style="color:#000;fill:#ef2929;fill-opacity:1;fill-rule:nonzero;stroke:#a40000;stroke-width:.95070267;stroke-linecap:butt;stroke-linejoin:miter;stroke-miterlimit:4;stroke-opacity:1;stroke-dasharray:none;stroke-dashoffset:0;marker:none;visibility:visible;display:inline;overflow:visible;enable-background:accumulate" id="path11183" d="m 53.83354,38.728027 c 0,2.362764 -1.915398,4.278162 -4.278162,4.278162 -2.362764,0 -4.278162,-1.915398 -4.278162,-4.278162 0,-2.362763 1.915398,-4.278162 4.278162,-4.278162 2.362764,0 4.278162,1.915399 4.278162,4.278162 z" transform="matrix(1.0518536,0,0,1.0518536,619.05359,640.09026)"/><path id="path10411" d="m 53.83354,38.728027 c 0,2.362764 -1.915398,4.278162 -4.278162,4.278162 -2.362764,0 -4.278162,-1.915398 -4.278162,-4.278162 0,-2.362763 1.915398,-4.278162 4.278162,-4.278162 2.362764,0 4.278162,1.915399 4.278162,4.278162 z" transform="matrix(1.0518536,0,0,1.0518536,619.05359,628.09026)" style="color:#000;fill:#babdb6;fill-opacity:1;fill-rule:nonzero;stroke:#888a85;stroke-width:.95070267;stroke-linecap:butt;stroke-linejoin:miter;stroke-miterlimit:4;stroke-opacity:1;stroke-dasharray:none;stroke-dashoffset:0;marker:none;visibility:visible;display:inline;overflow:visible;enable-background:accumulate"/><rect style="color:#000;fill:#fff;fill-opacity:1;fill-rule:nonzero;stroke:none;stroke-width:1;marker:none;visibility:visible;display:inline;overflow:visible;enable-background:accumulate" id="rect11185" width="6" height="2" x="668.179" y="679.826"/><rect id="rect10413" width="6" height="2" x="668.179" y="667.826" style="color:#000;fill:#fff;fill-opacity:1;fill-rule:nonzero;stroke:none;stroke-width:1;marker:none;visibility:visible;display:inline;overflow:visible;enable-background:accumulate"/></g></g></svg>