<svg xmlns="http://www.w3.org/2000/svg" xmlns:svg="http://www.w3.org/2000/svg" id="svg2" width="16" height="80" version="1.1"><metadata id="metadata7"/><g id="layer1" transform="translate(-664.99677,-642.99597)"><g id="g10081"><path style="opacity:.9;fill:#fcaf3e;fill-opacity:1;fill-rule:evenodd;stroke:#ce5c00;stroke-width:.99999994;stroke-miterlimit:4;stroke-opacity:1;stroke-dasharray:none;display:inline;enable-background:new" id="path10302" d="m 672.99678,693.69469 -1.76165,3.50191 -3.73836,0.63296 2.66407,2.82682 -0.55852,3.83959 3.39446,-1.77209 3.39459,1.77209 -0.55865,-3.83959 2.66405,-2.82682 -3.73821,-0.63296 -1.76178,-3.50191 z"/><path id="path5099" d="m 672.99678,709.6947 -1.76165,3.50191 -3.73836,0.63296 2.66407,2.82681 -0.55852,3.83959 3.39446,-1.77208 3.39459,1.77208 -0.55865,-3.83959 2.66405,-2.82681 -3.73821,-0.63296 -1.76178,-3.50191 z" style="opacity:.9;fill:#ef2929;fill-opacity:1;fill-rule:evenodd;stroke:#a40000;stroke-width:.99999994;stroke-miterlimit:4;stroke-opacity:1;stroke-dasharray:none;display:inline;enable-background:new"/><path style="opacity:.9;fill:#ebebeb;fill-opacity:1;fill-rule:evenodd;stroke:#bababa;stroke-width:.99999994;stroke-miterlimit:4;stroke-opacity:.69411765;stroke-dasharray:none;display:inline;enable-background:new" id="path5101" d="m 672.99678,677.6947 -1.76165,3.50191 -3.73836,0.63295 2.66407,2.82682 -0.55852,3.83959 3.39446,-1.77208 3.39459,1.77208 -0.55865,-3.83959 2.66405,-2.82682 -3.73821,-0.63295 -1.76178,-3.50191 z"/><path style="color:#000;fill:#ef2929;fill-opacity:1;fill-rule:nonzero;stroke:#a40000;stroke-width:.77784753;stroke-linecap:butt;stroke-linejoin:miter;stroke-miterlimit:4;stroke-opacity:1;stroke-dasharray:none;stroke-dashoffset:0;marker:none;visibility:visible;display:inline;overflow:visible;enable-background:accumulate" id="path11183" d="m 53.83354,38.728027 c 0,2.362764 -1.915398,4.278162 -4.278162,4.278162 -2.362764,0 -4.278162,-1.915398 -4.278162,-4.278162 0,-2.362763 1.915398,-4.278162 4.278162,-4.278162 2.362764,0 4.278162,1.915399 4.278162,4.278162 z" transform="matrix(1.2855988,0,0,1.2855988,609.28843,617.70726)"/><path id="path10411" d="m 53.83354,38.728027 c 0,2.362764 -1.915398,4.278162 -4.278162,4.278162 -2.362764,0 -4.278162,-1.915398 -4.278162,-4.278162 0,-2.362763 1.915398,-4.278162 4.278162,-4.278162 2.362764,0 4.278162,1.915399 4.278162,4.278162 z" transform="matrix(1.2855988,0,0,1.2855988,609.28843,601.70726)" style="color:#000;fill:#babdb6;fill-opacity:1;fill-rule:nonzero;stroke:#888a85;stroke-width:.77784753;stroke-linecap:butt;stroke-linejoin:miter;stroke-miterlimit:4;stroke-opacity:1;stroke-dasharray:none;stroke-dashoffset:0;marker:none;visibility:visible;display:inline;overflow:visible;enable-background:accumulate"/><rect style="color:#000;fill:#fff;fill-opacity:1;fill-rule:nonzero;stroke:#c80000;stroke-width:1;marker:none;visibility:visible;display:inline;overflow:visible;enable-background:accumulate;stroke-opacity:1;stroke-linejoin:round;stroke-linecap:round" id="rect11185" width="7" height="3" x="669.497" y="665.996"/><rect id="rect10413" width="7" height="3" x="669.497" y="649.996" style="color:#000;fill:#fff;fill-opacity:1;fill-rule:nonzero;stroke:#a5a5a3;stroke-width:1;marker:none;visibility:visible;display:inline;overflow:visible;enable-background:accumulate;stroke-opacity:1;stroke-linejoin:round;stroke-linecap:round"/></g></g></svg>